<svg width="256" height="256" viewBox="0 0 256 256" fill="none" xmlns="http://www.w3.org/2000/svg">
<path d="M152.351 103.652C166.04 103.269 179.846 103.624 193.576 103.633C206.049 103.641 215.981 103.179 226.51 111.264C235.304 118.016 237.305 124.815 239.066 135.264C243.051 158.904 226.64 175.404 203.624 176.599C201.866 176.699 193.017 177.141 191.929 178.493C190.231 180.6 189.011 185.219 187.49 187.663C175.553 209.454 152.433 224.458 127.775 227.342C112.526 228.796 107.002 227.997 92.3078 223.363C59.2063 212.924 41.2449 185.383 41.378 151.143C41.4032 144.654 40.226 107.49 41.9039 104.319C43.9406 103.373 140.03 104.216 152.351 103.652ZM197.381 160.743C204.305 159.799 209.151 159.77 215.587 155.491C216.734 154.399 218.633 152.743 219.44 151.414C226.967 139.022 218.849 122.087 204.613 119.676C203.314 119.456 201.418 119.512 200.052 119.487L198.312 119.459L197.422 119.738C197.241 120.133 197.294 157.135 197.381 160.743Z" fill="white"/>
<path d="M126.651 28.6181C128.822 27.7412 173.642 27.9464 178.23 28.3239C180.022 28.2643 182.75 28.0453 184.354 28.6813C186.373 31.6337 181.662 41.5008 180.794 44.8117C180.432 46.1912 178.917 50.1469 178.252 51.5103C172.93 62.4297 162.655 70.3301 152.483 76.4891C149.002 78.5968 144.642 79.6948 140.779 80.9458C139.855 81.2453 138.768 81.1758 138.035 81.3863C131.844 81.7627 75.9886 82.3445 74.2341 80.9088C73.8475 80.0195 74.2245 79.0749 74.4647 78.0941C76.6048 68.2815 78.2361 61.6348 83.9952 53.0633C90.6995 43.0849 103.497 33.4619 115.151 30.3754C118.955 29.3677 122.737 29.3423 126.651 28.6181Z" fill="white"/>
<path d="M126.651 28.6181C128.822 27.7412 173.642 27.9464 178.23 28.3239C168.994 29.1982 159.714 29.507 150.441 29.249C142.065 29.0733 135.192 28.5432 126.651 28.6181Z" fill="white"/>
</svg>
