<svg width="256" height="256" viewBox="0 0 256 256" fill="none" xmlns="http://www.w3.org/2000/svg">
<path d="M185.408 37C195.259 37.2518 206.188 37.0508 216.123 37.0918C193.486 61.9728 171.646 88.6151 149.044 113.6L228 218.02L218.259 218.008L166.133 218.038C164.715 215.844 161.506 211.889 159.793 209.644L146.869 192.757C137.393 180.407 127.419 166.707 117.688 154.726C112.695 161.028 105.469 168.792 100.003 175.039L62.418 218.049C52.2988 217.874 41.8196 218.009 31.6729 218.006C34.3919 214.542 38.1616 210.491 41.1123 207.131L56.5117 189.512L103.424 135.886C97.7109 129.166 90.1516 118.629 84.6787 111.449L50.5996 66.8906L34.7734 46.2324C33.701 44.8306 28.573 38.293 28 37.0439L91.2695 37.0713C92.9025 39.5101 95.5624 42.8346 97.3672 45.2295L109.744 61.5801C117.919 72.3664 126.502 84.2688 134.904 94.7139C136.721 92.5676 138.576 90.3921 140.447 88.2959C155.57 71.377 170.155 53.7858 185.408 37ZM63.8574 54.416C66.6817 58.7836 72.0602 65.4325 75.3096 69.6543L94.5674 94.8037L146.615 162.875C155.551 174.539 166.149 187.712 174.634 199.507C179.884 199.496 186.391 199.649 191.513 199.428L122.219 107.81L96.8047 74.2188C91.9688 67.8294 86.5327 60.9507 81.958 54.4639C75.9247 54.4125 69.891 54.3963 63.8574 54.416Z" fill="white"/>
</svg>
