<svg width="256" height="256" viewBox="0 0 256 256" fill="none" xmlns="http://www.w3.org/2000/svg">
<path d="M113.775 51.0593C130.18 50.8992 146.587 51.0633 162.985 51.551C180.272 51.9642 198.492 51.7639 215.343 55.9912C227.382 59.0106 232.287 68.662 234.458 79.9121C237.054 93.3551 237.357 106.519 237.809 120.192C238.234 132.402 237.95 144.628 236.959 156.806C236.058 168.523 234.818 185.027 226.492 194.139C221.269 199.855 211.426 202.202 204.007 203.009C195.32 203.954 186.322 204.357 177.516 204.637C165.442 205.069 153.366 205.404 141.287 205.647L131.324 205.974C126.669 206.085 121.538 205.815 116.839 205.662L101.959 205.324C87.3756 204.988 72.6249 204.855 58.1135 203.426C48.3463 202.466 37.6013 201.91 30.1687 194.704C23.823 188.553 22.3866 181.063 21.0372 172.751C19.1861 160.857 18.1914 148.846 18.0608 136.809C17.7593 118.166 18.528 99.6087 21.5316 81.2151C26.0325 53.654 44.1458 54.2148 66.7985 52.7275C82.4355 51.6658 98.1025 51.1093 113.775 51.0593ZM105.36 161.677C117.48 154.727 130.19 147.221 142.406 140.566C149.468 136.611 156.934 131.764 164.178 128.431C159.966 126.517 155.409 123.916 151.402 121.529C137.107 113.011 122.358 105.335 108.109 96.7508C107.515 96.3934 106.08 95.5043 105.51 95.2575L105.72 139.246C105.711 145.459 105.938 155.768 105.36 161.677Z" fill="white"/>
</svg>
