<svg width="256" height="256" viewBox="0 0 256 256" fill="none" xmlns="http://www.w3.org/2000/svg">
<path d="M106.413 28.0429L150.993 28.0706L166.561 28.0809C169.617 28.0882 173.202 28.1926 176.213 28C173.663 32.3115 168.416 39.129 165.285 43.3961C162.489 47.2067 157.911 53.9145 154.988 57.3522C156.998 57.0525 160.295 57.1609 162.428 57.1672L174.168 57.1863L206.626 57.1778C212.545 57.1795 219.141 57.3365 225 57.1152C223.721 58.6734 221.419 62.2123 220.08 64.0644L208.326 80.2526L171.953 130.323L148.973 161.997C147.069 164.632 145.146 167.253 143.202 169.861C141.895 171.611 139.983 174.033 138.948 175.896C140.808 175.593 145.835 175.702 147.966 175.702L164.524 175.711L198.092 175.716C204.294 175.714 210.935 175.6 217.108 175.774L217.096 227.922C215.959 228.073 213.809 227.963 212.58 227.937C210.415 227.889 208.249 227.867 206.083 227.871L178.459 227.892H79.9133L47.0239 227.899C42.1429 227.904 35.6928 227.66 31 227.938L92.8435 142.517L109.421 119.687C111.692 116.567 116.102 110.211 118.635 107.552C114.606 107.636 109.894 107.5 105.777 107.502L74.0587 107.502L58.1621 107.519C55.7764 107.525 51.4741 107.66 49.2629 107.402L49.1398 107.123C49.3122 106.27 50.2215 105.097 50.7388 104.363C55.8148 97.307 60.9293 90.2781 66.0819 83.2773L89.2833 51.2381L99.4172 37.371C101.064 35.0776 104.591 29.8523 106.413 28.0429Z" fill="white"/>
</svg>
